<?xml version="1.0" encoding="utf-8"?>

<!-- Uploaded to: SVG Repo, www.svgrepo.com, Generator: SVG Repo Mixer Tools -->
<svg width="800px" height="800px" viewBox="-0.65 0 64.465 64.465" xmlns="http://www.w3.org/2000/svg">
  <g id="bricks" transform="translate(-744 -248)">
    <path id="Path_97" data-name="Path 97" d="M766.732,276.417,765,269l7.536,1.91,2.489,2.624h0a10.988,10.988,0,1,0-5.744,5.6l.017-.016Z" fill="#7b55b3" opacity="0.3"/>
    <circle id="Ellipse_40" data-name="Ellipse 40" cx="4" cy="4" r="4" transform="translate(761 265)" fill="#ffffff" opacity="0.5"/>
    <path id="Path_98" data-name="Path 98" d="M772.536,270.91,765,269l1.732,7.417,14.455,15.234a4,4,0,0,0,5.8-5.506Z" fill="none" stroke="#7b55b3" stroke-linecap="square" stroke-miterlimit="10" stroke-width="4"/>
    <line id="Line_170" data-name="Line 170" x2="5.505" y2="5.803" transform="translate(786.843 291.799)" fill="none" stroke="#7b55b3" stroke-linecap="round" stroke-linejoin="round" stroke-width="4"/>
    <path id="Path_99" data-name="Path 99" d="M790.972,296.152l-7.981,7.571.985-10.584" fill="none" stroke="#7b55b3" stroke-linecap="round" stroke-linejoin="round" stroke-width="2"/>
    <path id="Path_100" data-name="Path 100" d="M790.972,296.152l7.979-7.571-10.621.428" fill="none" stroke="#7b55b3" stroke-linecap="round" stroke-linejoin="round" stroke-width="2"/>
    <line id="Line_171" data-name="Line 171" y1="5.507" x2="5.804" transform="translate(769.485 273.811)" fill="none" stroke="#7b55b3" stroke-linecap="round" stroke-linejoin="round" stroke-width="2"/>
    <line id="Line_172" data-name="Line 172" x2="5.506" y2="5.803" transform="translate(787.196 305.249)" fill="none" stroke="#7b55b3" stroke-linecap="round" stroke-linejoin="round" stroke-width="2"/>
    <line id="Line_173" data-name="Line 173" x2="2.752" y2="2.902" transform="translate(790.098 302.495)" fill="none" stroke="#7b55b3" stroke-linecap="round" stroke-linejoin="round" stroke-width="2"/>
    <line id="Line_174" data-name="Line 174" x2="5.508" y2="5.803" transform="translate(800.253 292.859)" fill="none" stroke="#7b55b3" stroke-linecap="round" stroke-linejoin="round" stroke-width="2"/>
    <line id="Line_175" data-name="Line 175" x2="2.753" y2="2.902" transform="translate(797.352 295.612)" fill="none" stroke="#7b55b3" stroke-linecap="round" stroke-linejoin="round" stroke-width="2"/>
    <path id="Path_101" data-name="Path 101" d="M780.775,279.593a18.988,18.988,0,1,0-5.758,5.555" fill="none" stroke="#7b55b3" stroke-linecap="round" stroke-linejoin="round" stroke-width="4"/>
    <path id="Path_102" data-name="Path 102" d="M775.025,273.533a10.988,10.988,0,1,0-5.744,5.6" fill="none" stroke="#7b55b3" stroke-linecap="round" stroke-linejoin="round" stroke-width="2"/>
    <line id="Line_176" data-name="Line 176" y1="8" transform="translate(765 250)" fill="none" stroke="#7b55b3" stroke-linecap="round" stroke-linejoin="round" stroke-width="2"/>
    <line id="Line_177" data-name="Line 177" y1="8" transform="translate(765 280)" fill="none" stroke="#7b55b3" stroke-linecap="round" stroke-linejoin="round" stroke-width="2"/>
    <line id="Line_178" data-name="Line 178" x1="8" transform="translate(746 269)" fill="none" stroke="#7b55b3" stroke-linecap="round" stroke-linejoin="round" stroke-width="2"/>
    <line id="Line_179" data-name="Line 179" x1="8" transform="translate(776 269)" fill="none" stroke="#7b55b3" stroke-linecap="round" stroke-linejoin="round" stroke-width="2"/>
    <line id="Line_180" data-name="Line 180" y2="8.667" transform="translate(760 287.332)" fill="none" stroke="#7b55b3" stroke-linecap="round" stroke-linejoin="round" stroke-width="2"/>
    <line id="Line_181" data-name="Line 181" y2="15.264" transform="translate(756 285.736)" fill="none" stroke="#7b55b3" stroke-linecap="round" stroke-linejoin="round" stroke-width="2"/>
  </g>
</svg>